REM MD5 cf5846b8564d86921708d6e7ace9ad77
FILE "Tech PlayStation 97-10 (Japan).bin" BINARY
  TRACK 01 MODE2/2352
    INDEX 01 00:00:00
  TRACK 02 AUDIO
    INDEX 00 64:17:42
    INDEX 01 64:19:42
  TRACK 03 AUDIO
    INDEX 00 66:13:67
    INDEX 01 66:15:67
REM LEADOUT 70:58:70
